<svg xmlns="http://www.w3.org/2000/svg" viewBox="0 0 240 240"><defs><linearGradient id="g" x1="0" y1="0" x2="1" y2="1"><stop offset="0" stop-color="#eaf2ff"/><stop offset="1" stop-color="#dbe9fb"/></linearGradient></defs><circle cx="120" cy="120" r="112" fill="url(#g)" stroke="#c9dcf4" stroke-width="4"/><circle cx="120" cy="120" r="88" fill="#ffffff" stroke="#e3eefc" stroke-width="2"/><g transform="translate(120 118)"><path d="M-52 8 L-52 92 A52 52 0 0 0 52 92 L52 8 Z" fill="#1c3f8f"/><rect x="-38" y="8" width="76" height="70" rx="8" fill="#ffffff"/><g stroke="#c9dcf4" stroke-width="5" stroke-linecap="round"><line x1="-22" y1="44" x2="22" y2="44"/><line x1="-22" y1="58" x2="22" y2="58"/><line x1="-22" y1="72" x2="10" y2="72"/></g></g><path d="M120 46 A44 44 0 0 1 164 90 L120 90 Z" fill="#f0f6ff" stroke="#033d75" stroke-width="9"/><circle cx="120" cy="104" r="6" fill="#d13636"/><g stroke="#7fa6d9" stroke-width="6" stroke-linecap="round"><line x1="96" y1="154" x2="104" y2="146"/><line x1="144" y1="154" x2="136" y2="146"/><line x1="106" y1="172" x2="112" y2="162"/><line x1="134" y1="172" x2="128" y2="162"/></g></svg>